<svg width="24" height="24" viewBox="0 0 24 24" fill="none" xmlns="http://www.w3.org/2000/svg">
<g clip-path="url(#clip0_5135_1099)">
<path d="M5 4.37524C5 3.27067 5.89543 2.37524 7 2.37524H17C18.1046 2.37524 19 3.27067 19 4.37524V13.4065C19 13.9588 19.4477 14.4065 20 14.4065C20.5523 14.4065 21 13.9588 21 13.4065V4.37524C21 2.16611 19.2091 0.375244 17 0.375244H7C4.79086 0.375244 3 2.16611 3 4.37524V11.9065C3 12.4588 3.44772 12.9065 4 12.9065C4.55228 12.9065 5 12.4588 5 11.9065V4.37524Z" fill="black"/>
<path fill-rule="evenodd" clip-rule="evenodd" d="M6.54976 23.5002C7.57492 23.5002 8.45597 22.8832 8.84174 22.0002H15.583C15.9688 22.8832 16.8498 23.5002 17.875 23.5002C18.9002 23.5002 19.7812 22.8832 20.167 22.0002H20.5C21.6046 22.0002 22.5 21.1048 22.5 20.0002V18.5618C22.5 17.1852 21.5631 15.9852 20.2276 15.6514L18.3611 15.1847C18.1599 15.1344 17.9793 15.0228 17.8443 14.8654L16.7559 13.5955C15.616 12.2656 13.9519 11.5002 12.2003 11.5002H9.90161C7.74847 11.5002 5.76041 12.654 4.69215 14.5234L4.47783 14.8985C4.36578 15.0946 4.19066 15.2469 3.98097 15.3308L3.38583 15.5689C2.24685 16.0245 1.5 17.1276 1.5 18.3543V20.0002C1.5 21.1048 2.39543 22.0002 3.5 22.0002H4.25779C4.64356 22.8832 5.52461 23.5002 6.54976 23.5002ZM15.2374 14.8971C14.4774 14.0105 13.368 13.5002 12.2003 13.5002H9.90161C8.46619 13.5002 7.14081 14.2694 6.42864 15.5157L6.21431 15.8908C5.87817 16.479 5.35281 16.9362 4.72375 17.1878L4.12861 17.4258C3.74895 17.5777 3.5 17.9454 3.5 18.3543V20.0002H4.25779C4.64356 19.1173 5.52461 18.5002 6.54976 18.5002C7.57492 18.5002 8.45597 19.1173 8.84174 20.0002H15.583C15.9688 19.1173 16.8498 18.5002 17.875 18.5002C18.9002 18.5002 19.7812 19.1173 20.167 20.0002H20.5V18.5618C20.5 18.1029 20.1877 17.7029 19.7425 17.5917L17.876 17.125C17.2724 16.9741 16.7307 16.6393 16.3258 16.167L15.2374 14.8971ZM6.54976 21.7002C6.16317 21.7002 5.84976 21.3868 5.84976 21.0002C5.84976 20.6136 6.16317 20.3002 6.54976 20.3002C6.93636 20.3002 7.24976 20.6136 7.24976 21.0002C7.24976 21.3868 6.93636 21.7002 6.54976 21.7002ZM17.875 21.7002C17.4884 21.7002 17.175 21.3868 17.175 21.0002C17.175 20.6136 17.4884 20.3002 17.875 20.3002C18.2616 20.3002 18.575 20.6136 18.575 21.0002C18.575 21.3868 18.2616 21.7002 17.875 21.7002Z" fill="black"/>
<path d="M7 5.12524C7 4.57296 7.44772 4.12524 8 4.12524H16C16.5523 4.12524 17 4.57296 17 5.12524C17 5.67753 16.5523 6.12524 16 6.12524H8C7.44772 6.12524 7 5.67753 7 5.12524Z" fill="black"/>
<path d="M8 7.75024C7.44772 7.75024 7 8.19796 7 8.75024C7 9.30253 7.44772 9.75024 8 9.75024H12.3438C12.896 9.75024 13.3438 9.30253 13.3438 8.75024C13.3438 8.19796 12.896 7.75024 12.3438 7.75024H8Z" fill="black"/>
</g>
<defs>
<clipPath id="clip0_5135_1099">
<rect width="24" height="24" fill="white" transform="translate(0 0.000244141)"/>
</clipPath>
</defs>
</svg>
