<svg width="24" height="24" viewBox="0 0 24 24" fill="none" xmlns="http://www.w3.org/2000/svg">
<path fill-rule="evenodd" clip-rule="evenodd" d="M3.89978 3.38184C5.53588 2.50926 7.72723 2 10.093 2C12.4587 2 14.65 2.50926 16.2861 3.38184C17.8792 4.23151 19.1859 5.57524 19.1859 7.31624C19.1859 8.12445 18.9043 8.84704 18.4432 9.47434C18.9043 10.1016 19.1859 10.8242 19.1859 11.6324C19.1859 13.3734 17.8792 14.7172 16.2861 15.5668C14.65 16.4394 12.4587 16.9487 10.0929 16.9487C7.72723 16.9487 5.53588 16.4394 3.89978 15.5668C3.66906 15.4438 3.44434 15.3104 3.22873 15.1669C3.06826 15.4422 3 15.7054 3 15.9488C3 16.5916 3.50501 17.406 4.84096 18.1185C6.13394 18.808 7.98906 19.265 10.093 19.265C10.6116 19.265 11.117 19.2372 11.6039 19.1845C11.7735 19.1661 11.9407 19.1448 12.1054 19.1205C12.2749 19.0956 12.4416 19.0676 12.6054 19.0367C13.1481 18.9344 13.671 19.2914 13.7733 19.8342C13.8756 20.3769 13.5186 20.8998 12.9758 21.0021C12.7854 21.038 12.5923 21.0704 12.3967 21.0992C12.2065 21.1272 12.0139 21.1518 11.8192 21.1729C11.2601 21.2334 10.6829 21.265 10.093 21.265C7.72723 21.265 5.53588 20.7557 3.89978 19.8832C2.30666 19.0335 1 17.6898 1 15.9488C1 15.1433 1.28589 14.4168 1.74323 13.7913C1.2818 13.1638 1 12.441 1 11.6324C1 10.8242 1.28158 10.1016 1.74269 9.47433C1.28158 8.84704 1 8.12444 1 7.31624C1 5.57524 2.30666 4.23151 3.89978 3.38184ZM4.84096 5.14655C3.50501 5.85906 3 6.67345 3 7.31624C3 7.95903 3.50501 8.77342 4.84096 9.48593C6.13394 10.1755 7.98906 10.6325 10.093 10.6325C12.1968 10.6325 14.052 10.1755 15.3449 9.48593C16.6809 8.77342 17.1859 7.95903 17.1859 7.31624C17.1859 6.67345 16.6809 5.85906 15.3449 5.14655C14.052 4.45696 12.1968 4 10.093 4C7.98906 4 6.13394 4.45696 4.84096 5.14655ZM16.2861 11.2506C16.5164 11.1278 16.7406 10.9947 16.9558 10.8516C17.1149 11.1264 17.1859 11.3915 17.1859 11.6324C17.1859 12.2752 16.6809 13.0896 15.3449 13.8021C14.052 14.4917 12.1968 14.9487 10.0929 14.9487C7.98906 14.9487 6.13394 14.4917 4.84096 13.8021C3.50501 13.0896 3 12.2752 3 11.6324C3 11.3915 3.07097 11.1264 3.23009 10.8516C3.44528 10.9947 3.66954 11.1278 3.89978 11.2506C5.53588 12.1232 7.72723 12.6325 10.093 12.6325C12.4587 12.6325 14.65 12.1232 16.2861 11.2506Z" fill="black"/>
<path d="M19.265 16.0277C19.8172 16.0277 20.265 16.4754 20.265 17.0277V18.7255H21.9626C22.5149 18.7255 22.9626 19.1732 22.9626 19.7255C22.9626 20.2777 22.5149 20.7255 21.9626 20.7255H20.265V22.423C20.265 22.9753 19.8172 23.423 19.265 23.423C18.7127 23.423 18.265 22.9753 18.265 22.423V20.7255H16.5673C16.015 20.7255 15.5673 20.2777 15.5673 19.7255C15.5673 19.1732 16.015 18.7255 16.5673 18.7255H18.265V17.0277C18.265 16.4754 18.7127 16.0277 19.265 16.0277Z" fill="black"/>
</svg>
