<svg width="24" height="24" viewBox="0 0 24 24" fill="none" xmlns="http://www.w3.org/2000/svg">
<path d="M17.2412 4.78247C17.2412 3.6779 16.3458 2.78247 15.2412 2.78247H5.24121C4.13664 2.78247 3.24121 3.6779 3.24121 4.78247V16.7825C3.24121 17.887 4.13664 18.7825 5.24121 18.7825H6.5C7.05229 18.7825 7.5 19.2302 7.5 19.7825C7.5 20.3348 7.05229 20.7825 6.5 20.7825H5.24121C3.03207 20.7825 1.24121 18.9916 1.24121 16.7825V4.78247C1.24121 2.57333 3.03207 0.782471 5.24121 0.782471H15.2412C17.4503 0.782471 19.2412 2.57333 19.2412 4.78247V6.00006C19.2412 6.55235 18.7935 7.00006 18.2412 7.00006C17.6889 7.00006 17.2412 6.55235 17.2412 6.00006V4.78247Z" fill="black"/>
<path d="M14.0312 12.6012C13.5342 12.6012 13.1313 13.0042 13.1313 13.5012C13.1313 13.9983 13.5342 14.4012 14.0312 14.4012H18.5312C19.0283 14.4012 19.4312 13.9983 19.4312 13.5012C19.4312 13.0042 19.0283 12.6012 18.5312 12.6012H14.0312Z" fill="black"/>
<path d="M14.0312 15.3512C13.5342 15.3512 13.1313 15.7542 13.1313 16.2512C13.1313 16.7483 13.5342 17.1512 14.0312 17.1512H15.3813V20.0012C15.3813 20.4983 15.7842 20.9012 16.2812 20.9012C16.7783 20.9012 17.1812 20.4983 17.1812 20.0012V17.1512H18.5312C19.0283 17.1512 19.4312 16.7483 19.4312 16.2512C19.4312 15.7542 19.0283 15.3512 18.5312 15.3512H14.0312Z" fill="black"/>
<path fill-rule="evenodd" clip-rule="evenodd" d="M16.2813 8.54313C12.0355 8.54313 8.5937 11.985 8.5937 16.2307C8.5937 20.4765 12.0355 23.9183 16.2813 23.9183C20.527 23.9183 23.9689 20.4765 23.9689 16.2307C23.9689 11.985 20.527 8.54313 16.2813 8.54313ZM10.4937 16.2307C10.4937 13.0343 13.0849 10.4431 16.2813 10.4431C19.4777 10.4431 22.0689 13.0343 22.0689 16.2307C22.0689 19.4271 19.4777 22.0183 16.2813 22.0183C13.0849 22.0183 10.4937 19.4271 10.4937 16.2307Z" fill="black"/>
<path d="M15.2412 5.73343C15.2412 5.18114 14.7935 4.73343 14.2412 4.73343H6.24121C5.68893 4.73343 5.24121 5.18114 5.24121 5.73343C5.24121 6.28571 5.68893 6.73343 6.24121 6.73343H14.2412C14.7935 6.73343 15.2412 6.28571 15.2412 5.73343Z" fill="black"/>
<path d="M9.1875 9.49313C9.1875 8.94085 8.73978 8.49313 8.1875 8.49313H6.24121C5.68893 8.49313 5.24121 8.94085 5.24121 9.49313C5.24121 10.0454 5.68893 10.4931 6.24121 10.4931H8.1875C8.73978 10.4931 9.1875 10.0454 9.1875 9.49313Z" fill="black"/>
</svg>
